<svg width="560" height="315" viewBox="0 0 560 315" fill="none" xmlns="http://www.w3.org/2000/svg">
<g clip-path="url(#clip0_9051_16541)">
<rect width="560" height="315" fill="white"/>
<path d="M172.121 10.2296C176.771 8.60873 181.861 8.7957 186.382 10.7535C190.903 12.7113 194.525 16.297 196.53 20.8C197.338 22.554 197.93 24.4339 198.902 26.0891C203.548 33.9951 212.54 37.7026 221.348 35.0741C228.283 33.007 234.771 33.3125 240.618 37.7847C246.73 42.464 249.398 48.8089 248.311 56.4247C247.224 64.0406 242.906 69.3817 235.679 72.0826C224.661 76.2229 219.637 86.1312 222.962 97.4973C225.495 106.164 222.881 114.624 216.109 119.676C209.338 124.729 200.553 125.03 193.311 120.398C189.709 118.086 186.983 114.633 185.571 110.591C181.515 99.5833 171.058 94.5027 159.854 98.0737C157.358 98.8633 154.73 99.1485 152.123 98.9128C149.515 98.6771 146.98 97.9253 144.665 96.7009C142.349 95.4766 140.3 93.8041 138.635 91.7807C136.971 89.7574 135.725 87.4234 134.969 84.9144C134.213 82.4054 133.963 79.7714 134.233 77.1655C134.503 74.5595 135.288 72.0335 136.541 69.7343C137.795 67.435 139.493 65.4083 141.537 63.7719C143.581 62.1355 145.929 60.922 148.446 60.2019C158.764 57.2693 168.815 62.5833 172.701 73.0253C175.675 81.0221 183.065 86.2508 191.329 86.2076C199.863 86.1666 207.268 81.0062 210.015 72.8547C212.441 65.6635 211.193 58.9742 206.098 53.2953C201.002 47.6164 194.449 45.4495 186.929 47.1595C182.991 48.059 179.195 49.1933 175.097 48.4243C170.771 47.6685 166.818 45.4924 163.864 42.2395C160.91 38.9866 159.121 34.8422 158.782 30.4607C158.442 26.0792 159.57 21.7101 161.988 18.0432C164.406 14.3764 167.976 11.6207 172.134 10.2112L172.121 10.2296Z" fill="#5875E8"/>
<path d="M48.4124 232.45C51.2442 228.422 55.4878 225.605 60.302 224.558C65.1162 223.512 70.1496 224.312 74.4048 226.8C76.0841 227.754 77.6612 228.936 79.4164 229.713C87.8011 233.426 97.2675 231.193 102.89 223.92C107.317 218.196 112.765 214.661 120.124 214.883C127.817 215.119 133.685 218.717 137.244 225.537C140.803 232.357 140.411 239.215 136.115 245.624C129.58 255.413 131.278 266.392 140.608 273.685C147.721 279.248 150.532 287.644 147.978 295.698C145.424 303.751 138.465 309.12 129.88 309.581C125.605 309.804 121.378 308.589 117.873 306.129C108.158 299.553 96.7004 301.525 89.6826 310.96C88.1157 313.057 86.1473 314.822 83.8917 316.151C81.6362 317.481 79.1384 318.349 76.5436 318.704C73.9487 319.06 71.3085 318.897 68.7763 318.224C66.2441 317.552 63.8705 316.383 61.7932 314.785C59.7159 313.188 57.9764 311.195 56.6758 308.92C55.3752 306.646 54.5393 304.137 54.2168 301.537C53.8944 298.938 54.0916 296.302 54.7972 293.781C55.5028 291.259 56.7027 288.904 58.3271 286.851C64.998 278.451 76.262 276.905 85.509 283.121C92.5884 287.882 101.641 287.819 108.329 282.964C115.237 277.953 118.242 269.443 115.719 261.219C113.495 253.963 108.581 249.257 101.129 247.616C93.6782 245.975 87.0907 248.037 81.9802 253.812C79.3061 256.839 76.8841 259.974 73.1062 261.74C69.1513 263.65 64.6718 264.187 60.3747 263.268C56.0776 262.349 52.2079 260.025 49.3764 256.664C46.5449 253.303 44.913 249.096 44.7384 244.708C44.5637 240.319 45.8562 235.998 48.4119 232.428L48.4124 232.45Z" fill="#A3B5FF"/>
<path d="M478.811 131.461C474.753 128.672 471.891 124.459 470.794 119.656C469.697 114.853 470.444 109.811 472.887 105.53C473.823 103.841 474.988 102.251 475.747 100.488C479.371 92.0646 477.038 82.6222 469.706 77.0769C463.936 72.71 460.343 67.2998 460.488 59.9395C460.643 52.2436 464.179 46.3385 470.961 42.7075C477.743 39.0765 484.604 39.3968 491.059 43.6244C500.916 50.0558 511.877 48.2422 519.071 38.8357C524.558 31.6648 532.925 28.7655 541.005 31.2341C549.084 33.7026 554.526 40.6054 555.078 49.1847C555.346 53.4568 554.175 57.6971 551.752 61.2278C545.28 71.0112 547.373 82.4474 556.881 89.3653C558.995 90.91 560.78 92.8597 562.133 95.1011C563.486 97.3426 564.38 99.831 564.764 102.422C565.147 105.013 565.011 107.655 564.365 110.194C563.719 112.733 562.576 115.119 561 117.213C559.425 119.307 557.45 121.067 555.19 122.392C552.929 123.716 550.429 124.579 547.833 124.929C545.238 125.278 542.599 125.109 540.07 124.43C537.542 123.751 535.174 122.576 533.104 120.973C524.634 114.391 522.97 103.144 529.087 93.8324C533.774 86.7031 533.615 77.652 528.69 71.0155C523.606 64.1605 515.065 61.2457 506.868 63.8546C499.636 66.155 494.982 71.1192 493.419 78.5873C491.857 86.0554 493.989 92.6208 499.817 97.6701C502.872 100.312 506.033 102.701 507.839 106.46C509.79 110.394 510.374 114.868 509.501 119.175C508.627 123.481 506.344 127.375 503.013 130.242C499.682 133.109 495.493 134.785 491.106 135.006C486.72 135.227 482.386 133.98 478.789 131.462L478.811 131.461Z" fill="#A3B5FF"/>
<path d="M395.394 257.225C394.181 252.453 394.808 247.398 397.149 243.063C399.491 238.729 403.377 235.431 408.036 233.822C409.853 233.169 411.778 232.742 413.511 231.917C421.789 227.973 426.26 219.335 424.404 210.332C422.944 203.244 423.81 196.808 428.771 191.369C433.962 185.685 440.514 183.576 448.007 185.318C455.5 187.059 460.448 191.823 462.513 199.257C465.685 210.592 475.121 216.455 486.733 214.125C495.586 212.352 503.788 215.687 508.236 222.871C512.683 230.054 512.224 238.831 506.982 245.646C504.368 249.035 500.692 251.451 496.542 252.508C485.225 255.597 479.259 265.575 481.847 277.046C482.418 279.601 482.475 282.244 482.014 284.821C481.554 287.398 480.586 289.859 479.166 292.06C477.745 294.26 475.902 296.157 473.742 297.641C471.582 299.124 469.149 300.164 466.584 300.7C464.019 301.235 461.374 301.257 458.801 300.762C456.228 300.268 453.779 299.268 451.597 297.82C449.415 296.372 447.543 294.504 446.089 292.327C444.636 290.149 443.63 287.705 443.131 285.135C441.102 274.602 447.265 265.048 458.004 262.08C466.228 259.809 472.077 252.9 472.749 244.662C473.446 236.157 468.946 228.334 461.062 224.891C454.108 221.853 447.336 222.517 441.237 227.102C435.139 231.687 432.413 238.029 433.466 245.668C434.022 249.669 434.823 253.549 433.703 257.565C432.575 261.81 430.066 265.559 426.569 268.221C423.073 270.883 418.789 272.306 414.395 272.265C410 272.225 405.745 270.723 402.301 267.997C398.857 265.271 396.421 261.476 395.376 257.211L395.394 257.225Z" fill="#5875E8"/>
<path d="M-19.6707 99.303C-20.8832 94.5302 -20.2566 89.4756 -17.915 85.141C-15.5735 80.8064 -11.6878 77.5082 -7.02825 75.9001C-5.211 75.2468 -3.28692 74.82 -1.55383 73.9945C6.72443 70.0504 11.1959 61.4129 9.33942 52.4097C7.87998 45.3221 8.74553 38.8855 13.7069 33.4467C18.8974 27.7626 25.4492 25.654 32.9425 27.3953C40.4358 29.1367 45.3834 33.901 47.4489 41.3349C50.6205 52.6698 60.057 58.5322 71.6681 56.2029C80.5217 54.4292 88.7237 57.7651 93.1713 64.9482C97.6189 72.1313 97.1593 80.909 91.9178 87.7233C89.3031 91.1125 85.6272 93.5288 81.4775 94.5859C70.1606 97.6745 64.1945 107.653 66.7829 119.124C67.3535 121.678 67.4103 124.321 66.9499 126.899C66.4895 129.476 65.5212 131.937 64.1011 134.137C62.681 136.338 60.8376 138.235 58.6778 139.718C56.518 141.202 54.0849 142.241 51.52 142.777C48.955 143.313 46.3093 143.334 43.7364 142.84C41.1636 142.346 38.715 141.345 36.5328 139.897C34.3507 138.449 32.4785 136.582 31.025 134.405C29.5715 132.227 28.5657 129.782 28.0661 127.213C26.0371 116.68 32.2007 107.126 42.9398 104.158C51.1638 101.887 57.0123 94.9773 57.6842 86.74C58.3816 78.2344 53.8811 70.4114 45.9979 66.9687C39.0435 63.9302 32.2714 64.5943 26.1729 69.1794C20.0745 73.7644 17.3487 80.1062 18.4019 87.7453C18.9573 91.7462 19.7589 95.6262 18.6382 99.643C17.511 103.887 15.0012 107.637 11.5049 110.299C8.00858 112.96 3.72503 114.383 -0.669472 114.343C-5.06398 114.302 -9.3191 112.8 -12.763 110.074C-16.207 107.348 -18.6435 103.553 -19.688 99.2889L-19.6707 99.303Z" fill="#D8E0FF"/>
<path d="M280.329 48.303C279.117 43.5302 279.743 38.4756 282.085 34.141C284.427 29.8064 288.312 26.5082 292.972 24.9001C294.789 24.2468 296.713 23.82 298.446 22.9945C306.724 19.0504 311.196 10.4129 309.339 1.40971C307.88 -5.67786 308.746 -12.1145 313.707 -17.5533C318.897 -23.2374 325.449 -25.346 332.943 -23.6047C340.436 -21.8633 345.383 -17.099 347.449 -9.66511C350.62 1.66979 360.057 7.53219 371.668 5.20293C380.522 3.42915 388.724 6.76513 393.171 13.9482C397.619 21.1313 397.159 29.909 391.918 36.7233C389.303 40.1125 385.627 42.5288 381.478 43.5859C370.161 46.6745 364.194 56.6531 366.783 68.1235C367.354 70.6783 367.41 73.3212 366.95 75.8986C366.49 78.476 365.521 80.9365 364.101 83.1373C362.681 85.338 360.838 87.2351 358.678 88.7183C356.518 90.2015 354.085 91.2413 351.52 91.7772C348.955 92.3131 346.309 92.3345 343.736 91.8401C341.164 91.3457 338.715 90.3454 336.533 88.8973C334.351 87.4491 332.478 85.5821 331.025 83.4046C329.572 81.227 328.566 78.7824 328.066 76.2128C326.037 65.6796 332.201 56.1257 342.94 53.1575C351.164 50.887 357.012 43.9773 357.684 35.74C358.382 27.2344 353.881 19.4114 345.998 15.9687C339.044 12.9302 332.271 13.5943 326.173 18.1794C320.074 22.7644 317.349 29.1062 318.402 36.7453C318.957 40.7462 319.759 44.6262 318.638 48.643C317.511 52.8875 315.001 56.6366 311.505 59.2985C308.009 61.9604 303.725 63.3834 299.331 63.3428C294.936 63.3022 290.681 61.8003 287.237 59.0743C283.793 56.3483 281.357 52.5534 280.312 48.2889L280.329 48.303Z" fill="#D8E0FF"/>
<path d="M320.605 244.294C325.179 246.117 328.901 249.594 331.033 254.036C333.164 258.478 333.55 263.56 332.113 268.275C331.574 270.129 330.789 271.937 330.439 273.824C328.766 282.84 333.128 291.534 341.504 295.321C348.097 298.305 352.796 302.787 354.282 309.998C355.832 317.537 353.688 324.078 347.876 329.118C342.064 334.158 335.302 335.362 328.073 332.666C317.038 328.572 306.75 332.763 301.812 343.527C298.045 351.734 290.526 356.41 282.101 355.788C273.675 355.167 266.843 349.637 264.408 341.392C263.202 337.285 263.407 332.891 264.99 328.912C269.14 317.94 264.571 307.249 253.769 302.604C251.366 301.564 249.194 300.057 247.379 298.17C245.564 296.283 244.142 294.054 243.196 291.612C242.25 289.17 241.798 286.563 241.866 283.944C241.935 281.325 242.524 278.746 243.597 276.355C244.671 273.965 246.208 271.811 248.12 270.02C250.031 268.229 252.28 266.835 254.734 265.92C257.187 265.005 259.798 264.587 262.414 264.691C265.03 264.794 267.599 265.417 269.972 266.522C279.688 271.069 283.797 281.67 279.888 292.104C276.894 300.093 279.048 308.885 285.319 314.269C291.792 319.831 300.766 320.786 308.184 316.43C314.729 312.588 318.17 306.718 318.044 299.089C317.917 291.46 314.387 285.529 307.587 281.892C304.023 279.991 300.412 278.36 297.821 275.093C295.048 271.687 293.489 267.453 293.39 263.06C293.29 258.667 294.656 254.364 297.271 250.832C299.885 247.3 303.601 244.74 307.83 243.555C312.06 242.37 316.562 242.628 320.626 244.288L320.605 244.294Z" fill="#A3B5FF"/>
<path d="M199 186.108V154.184H205.196V157.332C205.807 156.399 206.709 155.554 207.901 154.796C209.123 154.009 210.621 153.615 212.396 153.615C215.654 153.615 218.126 154.577 219.813 156.502C221.5 158.426 222.344 161.297 222.344 165.117V165.991C222.344 168.615 221.937 170.816 221.122 172.595C220.308 174.344 219.159 175.671 217.675 176.574C216.192 177.478 214.432 177.93 212.396 177.93C211.087 177.93 209.836 177.639 208.643 177.056C207.479 176.443 206.505 175.569 205.72 174.432V186.108H199ZM210.781 172.376C212.119 172.376 213.225 171.837 214.097 170.758C214.999 169.65 215.45 168.061 215.45 165.991V165.117C215.45 163.105 215.014 161.618 214.141 160.656C213.297 159.665 212.177 159.169 210.781 159.169C209.85 159.169 208.992 159.373 208.207 159.781C207.45 160.16 206.84 160.744 206.374 161.531C205.938 162.318 205.72 163.295 205.72 164.461V166.647C205.72 167.843 205.938 168.878 206.374 169.752C206.84 170.598 207.45 171.254 208.207 171.72C208.992 172.158 209.85 172.376 210.781 172.376Z" fill="#5875E8"/>
<path d="M224.841 177.362V154.184H231.037V157.332C231.27 156.808 231.663 156.254 232.215 155.671C232.768 155.088 233.437 154.606 234.223 154.227C235.008 153.819 235.881 153.615 236.841 153.615C237.335 153.615 237.728 153.644 238.019 153.703C238.31 153.761 238.571 153.819 238.804 153.878V159.694C238.659 159.606 238.324 159.504 237.801 159.388C237.277 159.271 236.666 159.213 235.968 159.213C234.95 159.213 234.106 159.417 233.437 159.825C232.797 160.233 232.317 160.787 231.997 161.487C231.706 162.187 231.561 162.974 231.561 163.848V177.362H224.841Z" fill="#5875E8"/>
<path d="M247.4 177.93C245.742 177.93 244.317 177.609 243.124 176.968C241.96 176.327 241.073 175.452 240.462 174.344C239.851 173.207 239.546 171.953 239.546 170.583C239.546 168.28 240.244 166.516 241.64 165.292C243.066 164.067 245.204 163.455 248.055 163.455H254.6V162.493C254.6 161.093 254.265 160.131 253.596 159.606C252.956 159.082 252.054 158.819 250.891 158.819C249.785 158.819 248.971 158.994 248.447 159.344C247.924 159.665 247.633 160.204 247.575 160.962H240.855C240.942 159.563 241.379 158.309 242.164 157.201C242.978 156.093 244.127 155.219 245.611 154.577C247.124 153.936 248.956 153.615 251.109 153.615C253.145 153.615 254.934 153.921 256.476 154.534C258.018 155.146 259.21 156.137 260.054 157.507C260.926 158.848 261.363 160.656 261.363 162.93V171.458C261.363 172.682 261.392 173.761 261.45 174.694C261.508 175.598 261.595 176.487 261.712 177.362H255.298C255.269 176.866 255.225 176.429 255.167 176.05C255.138 175.671 255.123 175.204 255.123 174.65C254.425 175.583 253.451 176.37 252.2 177.012C250.978 177.624 249.378 177.93 247.4 177.93ZM249.582 173.163C250.542 173.163 251.4 172.988 252.156 172.639C252.912 172.289 253.509 171.764 253.945 171.064C254.381 170.335 254.6 169.519 254.6 168.615V167.653H249.364C248.374 167.653 247.633 167.916 247.138 168.44C246.673 168.965 246.44 169.563 246.44 170.233C246.44 171.108 246.673 171.822 247.138 172.376C247.633 172.901 248.447 173.163 249.582 173.163Z" fill="#5875E8"/>
<path d="M275.416 177.93C273.147 177.93 271.126 177.493 269.351 176.618C267.577 175.744 266.18 174.417 265.162 172.639C264.144 170.86 263.635 168.644 263.635 165.991V165.117C263.635 162.668 264.159 160.583 265.206 158.863C266.282 157.143 267.708 155.846 269.482 154.971C271.286 154.067 273.264 153.615 275.416 153.615C277.743 153.615 279.692 154.023 281.263 154.84C282.834 155.627 284.041 156.691 284.885 158.032C285.728 159.373 286.208 160.86 286.325 162.493H279.387C279.183 161.443 278.761 160.641 278.122 160.088C277.511 159.504 276.609 159.213 275.416 159.213C274.485 159.213 273.642 159.432 272.885 159.869C272.158 160.306 271.576 160.962 271.14 161.837C270.733 162.682 270.529 163.776 270.529 165.117V165.991C270.529 167.42 270.733 168.601 271.14 169.534C271.547 170.467 272.115 171.166 272.842 171.633C273.569 172.07 274.427 172.289 275.416 172.289C276.434 172.289 277.292 172.026 277.991 171.502C278.718 170.948 279.183 170.131 279.387 169.053H286.325C286.208 170.86 285.685 172.435 284.754 173.776C283.823 175.117 282.558 176.152 280.958 176.881C279.387 177.58 277.54 177.93 275.416 177.93Z" fill="#5875E8"/>
<path d="M298.42 177.624C296.5 177.624 294.929 177.376 293.707 176.881C292.486 176.356 291.584 175.51 291.002 174.344C290.42 173.149 290.129 171.531 290.129 169.49V159.694H287.293V154.184H290.129V148.936H296.849V154.184H302.129V159.694H296.849V168.397C296.849 169.709 297.053 170.642 297.46 171.195C297.896 171.749 298.725 172.026 299.947 172.026C300.82 172.026 301.692 171.983 302.565 171.895V177.362C302.012 177.449 301.43 177.507 300.82 177.537C300.209 177.595 299.409 177.624 298.42 177.624Z" fill="#5875E8"/>
<path d="M305.505 177.362V154.184H312.225V177.362H305.505ZM308.865 151.997C307.614 151.997 306.64 151.676 305.942 151.035C305.273 150.364 304.938 149.519 304.938 148.499C304.938 147.478 305.273 146.647 305.942 146.006C306.64 145.335 307.614 145 308.865 145C310.116 145 311.076 145.335 311.745 146.006C312.443 146.647 312.792 147.478 312.792 148.499C312.792 149.519 312.443 150.364 311.745 151.035C311.076 151.676 310.116 151.997 308.865 151.997Z" fill="#5875E8"/>
<path d="M326.948 177.93C324.679 177.93 322.657 177.493 320.883 176.618C319.108 175.744 317.712 174.417 316.694 172.639C315.676 170.86 315.167 168.644 315.167 165.991V165.117C315.167 162.668 315.69 160.583 316.737 158.863C317.814 157.143 319.239 155.846 321.013 154.971C322.817 154.067 324.795 153.615 326.948 153.615C329.275 153.615 331.224 154.023 332.795 154.84C334.365 155.627 335.573 156.691 336.416 158.032C337.26 159.373 337.74 160.86 337.856 162.493H330.918C330.715 161.443 330.293 160.641 329.653 160.088C329.042 159.504 328.14 159.213 326.948 159.213C326.017 159.213 325.173 159.432 324.417 159.869C323.69 160.306 323.108 160.962 322.672 161.837C322.264 162.682 322.061 163.776 322.061 165.117V165.991C322.061 167.42 322.264 168.601 322.672 169.534C323.079 170.467 323.646 171.166 324.373 171.633C325.1 172.07 325.959 172.289 326.948 172.289C327.966 172.289 328.824 172.026 329.522 171.502C330.249 170.948 330.715 170.131 330.918 169.053H337.856C337.74 170.86 337.216 172.435 336.285 173.776C335.354 175.117 334.089 176.152 332.489 176.881C330.918 177.58 329.071 177.93 326.948 177.93Z" fill="#5875E8"/>
<path d="M347.333 177.93C345.675 177.93 344.25 177.609 343.057 176.968C341.893 176.327 341.006 175.452 340.395 174.344C339.784 173.207 339.479 171.953 339.479 170.583C339.479 168.28 340.177 166.516 341.573 165.292C342.999 164.067 345.137 163.455 347.988 163.455H354.533V162.493C354.533 161.093 354.198 160.131 353.529 159.606C352.889 159.082 351.987 158.819 350.824 158.819C349.718 158.819 348.904 158.994 348.38 159.344C347.857 159.665 347.566 160.204 347.508 160.962H340.788C340.875 159.563 341.312 158.309 342.097 157.201C342.912 156.093 344.061 155.219 345.544 154.577C347.057 153.936 348.889 153.615 351.042 153.615C353.078 153.615 354.867 153.921 356.409 154.534C357.951 155.146 359.143 156.137 359.987 157.507C360.86 158.848 361.296 160.656 361.296 162.93V171.458C361.296 172.682 361.325 173.761 361.383 174.694C361.441 175.598 361.529 176.487 361.645 177.362H355.231C355.202 176.866 355.158 176.429 355.1 176.05C355.071 175.671 355.056 175.204 355.056 174.65C354.358 175.583 353.384 176.37 352.133 177.012C350.911 177.624 349.311 177.93 347.333 177.93ZM349.515 173.163C350.475 173.163 351.333 172.988 352.089 172.639C352.845 172.289 353.442 171.764 353.878 171.064C354.314 170.335 354.533 169.519 354.533 168.615V167.653H349.297C348.308 167.653 347.566 167.916 347.071 168.44C346.606 168.965 346.373 169.563 346.373 170.233C346.373 171.108 346.606 171.822 347.071 172.376C347.566 172.901 348.38 173.163 349.515 173.163Z" fill="#5875E8"/>
</g>
<defs>
<clipPath id="clip0_9051_16541">
<rect width="560" height="315" fill="white"/>
</clipPath>
</defs>
</svg>
